<svg xmlns="http://www.w3.org/2000/svg" width="960" height="960" viewBox="0 0 25400 25400" shape-rendering="geometricPrecision" text-rendering="geometricPrecision" image-rendering="optimizeQuality" fill-rule="evenodd" clip-rule="evenodd">
  <defs>
    <style>
      .str0,.str4{stroke:#4f4a3b;stroke-width:150}.str4{stroke:#754219}.fil1{fill:none}.fil3{fill:#754219}.fil0{fill:#fff}
    </style>
  </defs>
  <g id="Слой_x0020_1">
    <path class="fil0" d="M0 0h25400v25400H0z"/>
    <path class="fil0 str0" d="M12694 5510L2256 22890l9634-18260zM12745 5500l10439 17381-9635-18260z"/>
    <path class="fil1" stroke="#4f4a3b" stroke-width="150" stroke-linecap="round" d="M613 23316h24130v794H613z"/>
    <circle class="fil0" cx="12708" cy="16229" r="6622" stroke="#4f4a3b" stroke-width="200"/>
    <path d="M18626 16224h-331c0-50 2-99 0-147-13-212-26-424-43-636-7-98-74-144-172-128-153 27-307 52-460 77-79 13-112 64-104 153 19 193 47 386 48 579 1 231-17 462-34 693-9 118 20 164 137 181 286 42 573 84 859 127 8 1 16 3 28 6-39 468-202 900-354 1343-107-47-206-90-307-133 39-104 81-201 112-302 49-154 92-310 133-466 22-81-13-138-95-159-157-38-314-75-473-108-83-18-127 14-151 97-44 149-81 300-132 445-49 138-110 272-172 405-62 135-132 266-199 398-36 69-24 120 44 163 90 56 183 107 273 163 108 67 215 137 323 204 70 44 143 83 219 127-251 394-527 761-854 1087-83-79-161-152-227-214 176-215 349-422 517-631 56-71 42-126-32-179-126-90-251-181-377-270-87-62-130-49-196 32-129 155-256 313-397 456-155 156-325 298-488 446-26 24-59 47-74 77-15 31-24 75-14 106 16 47 46 91 76 132 113 154 229 307 343 460 49 66 98 132 151 204-380 274-775 503-1207 679-40-101-79-201-121-306 58-23 115-41 167-68 133-67 264-138 395-207 49-26 99-49 146-77 92-55 103-114 46-204-81-127-159-256-239-384-49-77-115-94-196-48-107 60-210 130-322 181-215 97-433 185-652 271-81 32-169 44-252 69-82 24-107 79-87 163 71 289 140 578 209 868 3 12 3 24 5 36-178 72-1170 196-1362 157v-322c23-1 46-2 68-4 242-16 484-29 725-52 99-9 133-67 115-166-27-155-56-310-85-465-15-80-51-107-135-98-131 13-262 32-393 42-304 21-608 12-911-25-45-5-97 3-139 21-24 10-43 52-48 82-32 206-59 412-90 618-14 99-32 197-50 303-118-18-233-27-343-55-220-58-437-125-655-191-99-31-197-68-295-101-32-10-47-26-31-61 39-87 76-174 116-266 59 25 112 52 168 70 198 62 397 123 597 181 80 24 139-11 160-93 40-161 78-322 115-484 15-68-27-120-105-143-153-44-309-80-458-137-262-99-520-207-761-354-95-59-142-46-199 48-149 242-297 485-445 728-12 20-25 39-43 66-50-35-99-68-146-102-206-153-414-303-617-461-100-78-187-171-281-257-36-33-26-56 4-88 63-64 120-132 179-197 199 210 405 378 619 538 76 57 129 47 184-28 90-126 181-251 272-377 61-85 51-127-28-192-227-189-457-374-652-597-101-115-199-232-300-346-58-64-103-67-173-17l-549 393c-68 49-135 101-209 156-273-384-502-778-673-1207 100-41 198-82 303-126 26 66 48 131 78 191 63 127 131 253 197 379 27 50 52 102 82 150 52 84 114 93 196 39 129-82 260-161 389-242 76-47 92-112 48-190-60-106-129-207-178-317-95-211-182-426-266-642-32-82-46-172-70-258-26-97-78-122-178-97-297 72-594 142-890 212-71-157-194-1136-159-1367h324c1 21 3 43 4 65 14 236 25 472 43 708 8 113 71 154 182 134 147-25 294-50 441-72 87-14 127-62 113-151-47-287-56-576-46-866 5-140 19-280 34-419 11-105-24-155-129-170-288-42-576-85-864-127-11-2-20-5-30-7 1-249 221-1070 360-1340 98 43 196 85 299 130-42 111-89 218-124 328-46 150-86 302-123 455-17 70 17 122 88 139 163 41 326 80 491 114 76 16 120-19 143-101 46-157 83-317 140-469 98-261 206-517 350-756 56-92 41-139-50-195-195-120-389-241-585-360-67-41-136-78-211-121 249-396 526-762 848-1085 86 78 166 151 239 217-67 77-126 145-186 214-62 70-126 138-185 210-53 63-103 130-151 197-55 77-45 128 32 183 126 91 251 182 377 271 87 61 129 47 196-35 119-147 238-294 370-428 161-163 336-311 505-466 25-23 50-46 74-70 43-45 47-94 11-145-73-101-145-203-220-304-85-117-174-231-259-348-27-37-48-79-74-124 375-267 768-499 1200-672 40 100 79 197 121 300-33 16-64 32-96 48-157 79-314 159-471 238-49 25-101 46-147 75-85 52-95 113-42 196 80 125 158 252 237 377 60 96 119 107 219 49 104-61 207-128 317-177 209-94 421-181 635-264 80-31 168-44 252-68 85-26 111-82 90-167-73-299-145-599-217-897 137-73 1098-191 1364-167v332c-46 0-92-2-138 0-204 13-408 23-612 40-142 12-178 70-150 210 27 134 49 268 72 402 20 114 57 142 169 125 432-65 865-67 1298-10 106 14 154-23 170-128 42-278 83-555 125-833 3-21 8-41 12-60 244 1 1093 232 1337 364-42 99-85 199-130 302-73-30-140-64-210-86-182-57-365-111-549-163-91-26-144 6-167 98-39 157-76 314-112 472-15 67 17 120 86 142 77 25 154 51 233 68 218 47 418 141 617 237 139 67 276 139 414 209 68 35 119 21 161-49 153-248 304-496 456-744 12-19 25-39 42-66 55 39 107 74 157 111 195 143 392 284 583 432 99 77 188 165 279 251 70 65 67 66-1 132-56 55-109 113-158 165-150-132-291-259-435-383-59-51-123-98-187-143-74-53-126-43-179 30-92 127-185 254-276 382-57 80-45 124 30 187 145 121 293 239 427 372 161 159 307 333 460 500 9 10 16 20 24 30 106 115 120 121 249 32 197-137 387-282 581-423 45-32 92-60 146-95 271 379 499 776 670 1202-100 42-198 83-303 126-25-62-44-123-72-179-65-131-135-260-203-390-27-51-52-103-82-151-52-84-113-93-196-39-129 83-260 162-390 243-75 47-91 111-47 190 64 113 135 222 189 340 92 205 176 414 257 624 32 83 46 172 70 258 24 89 79 116 169 94 299-73 598-144 895-215 68 122 194 1110 163 1368zm96-1271c-18-102-48-202-80-301-24-77-78-112-137-96-232 64-462 131-693 196-77 22-153 45-225 65-119-382-264-744-462-1084 88-51 172-100 260-151 48 84 100 165 140 251 68 143 130 291 194 437 41 94 89 117 185 83 148-52 296-104 444-157 92-32 126-99 90-190-59-145-117-292-186-433-73-151-148-301-238-442-139-218-291-428-439-641-39-55-110-63-163-23-54 41-108 82-160 125-162 131-322 263-484 394-31 25-66 44-102 68-248-309-525-582-836-825 62-83 120-160 180-238 50 37 97 64 135 100 152 139 301 282 450 424 55 52 126 56 181 4 118-109 236-220 352-331 81-77 84-131 7-211-71-76-147-146-220-219-49-48-93-100-146-143-116-95-235-188-356-276-149-109-301-213-453-319-52-36-105-72-160-103-86-49-154-28-201 57-89 159-177 319-265 479-61 108-121 217-182 328-351-187-710-346-1101-443 28-97 56-192 84-289 123 34 239 61 350 100 126 45 248 102 372 153 94 39 142 21 185-71 66-140 131-281 197-421 50-108 31-163-79-213-91-41-182-86-277-116-300-93-600-186-904-265-150-39-306-51-460-70-90-11-151 27-158 91-19 176-37 352-54 527-14 137-25 275-37 419-401-44-793-41-1190 8-14-101-26-196-39-294 23-3 35-6 48-7 236-11 472-22 708-31 102-4 149-46 153-146 8-163 14-327 23-491 3-58-25-95-74-114-35-13-75-17-112-18-339-5-677 16-1012 74-217 37-433 82-648 131-101 23-129 85-101 182 81 275 161 551 240 826 5 18 9 36 12 50-376 126-739 266-1079 469-52-88-102-173-156-266 123-63 240-127 360-185 119-57 242-105 360-162 67-32 83-84 57-155-55-154-110-308-166-462-31-87-103-122-185-86-188 84-376 169-562 257-72 35-141 78-210 120-151 90-304 177-451 273-102 65-196 142-293 215-52 39-63 116-22 170 47 60 94 120 142 178 133 163 267 325 400 488 12 14 28 29 32 47 3 16 0 43-11 53-83 78-173 150-254 231-140 138-276 279-412 422-46 49-84 105-130 161-81-61-158-119-239-181 43-57 80-112 124-160 132-144 267-286 401-429 60-64 61-113 1-178-113-120-227-240-342-359-66-69-116-73-187-9-67 61-129 127-194 192-57 57-118 111-169 173-95 116-188 235-276 356-108 147-211 298-315 448-38 56-77 112-110 171-41 73-32 163 17 192 87 53 176 103 265 152 129 70 258 139 387 207 63 34 127 66 193 100-186 357-347 718-440 1107-101-29-195-56-292-84 37-127 67-251 109-371 43-122 98-240 147-360 34-84 15-132-67-171-146-69-292-137-440-203-102-46-152-23-201 79-152 324-251 665-337 1009-51 206-77 418-109 628-17 109 31 163 138 172 202 17 403 34 604 52 97 9 193 24 294 37-40 386-37 765 8 1150-101 12-196 24-294 36-2-21-4-31-5-41-10-226-21-451-30-677-4-102-43-146-146-151-158-8-315-15-472-21-97-4-146 41-150 139-4 77-6 154 0 230 27 314 51 628 91 940 21 170 67 337 111 503 25 94 83 118 175 92 201-56 402-111 602-168 95-27 189-57 278-84 122 381 266 743 464 1085-87 51-171 100-259 152-40-69-85-136-119-209-74-157-144-317-214-476-43-98-91-120-190-85-146 52-292 103-439 155-98 34-131 103-88 200 86 194 173 387 265 578 61 126 125 252 201 368 122 187 255 366 384 547 51 72 116 81 185 27 89-69 177-139 264-210 35-28 66-60 101-88 61-49 123-96 185-144 59-46 119-92 181-140 251 317 530 587 839 830-64 83-122 160-192 252-195-182-382-356-567-530-65-62-129-68-194-7-118 109-234 221-352 331-72 67-80 120-12 191 122 129 246 258 378 376 114 102 238 191 361 281 145 107 294 208 442 311 56 38 112 77 171 111 78 44 149 21 193-55 40-70 83-139 121-210 67-121 130-243 196-364 43-80 87-159 132-241 350 188 710 346 1100 445-27 95-53 188-82 290-125-36-243-64-356-104-130-47-255-105-384-156-75-30-125-11-159 58-76 159-151 319-223 479-23 49-20 101 33 129 103 53 205 115 315 150 336 104 675 202 1015 293 121 32 248 39 373 53 92 11 153-28 159-96 21-199 39-398 59-597 11-114 24-227 36-344 400 43 790 41 1186-9 13 101 26 197 39 296-31 3-54 7-77 8-232 10-464 19-696 29-85 4-132 51-136 136-7 164-15 328-22 492-3 67 24 110 88 129 28 9 59 10 88 11 340 7 677-15 1012-72 221-37 442-85 661-135 97-22 125-85 98-177-82-280-163-559-243-839-4-14-7-28-10-40 375-125 739-265 1079-468 52 87 102 172 156 264-121 63-235 128-354 185-118 57-241 104-360 159-70 33-89 87-63 159 54 154 109 308 165 462 32 90 105 123 191 84 207-94 413-190 618-287 52-24 99-58 148-87 153-91 307-179 457-276 99-64 192-140 287-211 53-40 64-117 23-170-56-72-112-144-170-214-114-140-229-278-344-418-21-26-44-52-59-82-6-14-1-43 10-53 83-78 173-150 254-231 140-138 277-280 412-423 46-49 85-105 130-161 82 62 159 120 240 181-47 60-87 118-134 169-131 143-264 283-396 425-55 61-56 111-1 169 114 122 229 244 346 364 67 69 119 71 192 4 64-58 125-120 184-183 114-123 233-242 335-373 139-179 266-368 395-554 51-73 100-148 145-226 53-92 31-166-61-216-213-119-426-239-639-357-52-28-107-49-163-75 187-358 347-717 441-1110 99 29 194 56 294 85-41 135-76 264-120 390-41 116-93 228-138 343-32 81-13 132 63 167 150 71 302 136 450 210 85 43 149 12 190-75 43-90 87-181 116-276 93-301 186-601 265-905 39-152 51-311 70-467 14-113-29-161-140-171-159-13-318-25-477-40-139-13-278-31-411-46 7-198 20-387 18-576-1-191-16-381-26-577 92-11 186-23 285-35 3 24 8 42 9 60 10 221 20 442 27 664 4 86 45 140 121 144 168 8 336 16 504 22 85 3 134-42 143-128 2-19 1-38 2-57 7-449-48-892-126-1333z" fill="#4f4a3b" fill-rule="nonzero" stroke="#fefefe" stroke-width="25"/>
    <g id="_361009360">
      <path class="fil3 str4" d="M9949 16491c137 390 666 1435 863 1915 159 385 287-8 378-202l1789-3707c77-149 149-369 226-369h2464l-1-185-2585 1c-205 277-1299 2596-1528 3083l-470 981c-40 63-23 33-41 49l-751-1639c-47-111-54-154-123-210-101 32-348 253-476 339-67 46-107 41-88 144 131 11 175-128 343-200z"/>
      <path class="fil3 str4" d="M13481 16057c117-190 74-339 266-538 459-475 1326 142 965 918-153 331-507 614-737 828-68 62-127 137-190 201-419 421-452 267-452 736l1844-7v-322l-1492 5 828-789c49-40 73-71 120-109 274-214 673-644 495-1235-235-782-1290-913-1682-274-203 332-160 390 35 586zM10800 14609l77 123c58-114 104-173 232-218 319-112 464 200 269 406-87 92-162 96-321 116l-5 134c192 9 306-6 395 118 82 114 85 309 8 423-227 338-673-100-673-100-23 121 1 149 66 206 600 536 1285-435 562-702 18-25 480-373 101-673-184-144-518-125-711 167z"/>
    </g>
    <g id="_361008976">
      <path class="fil1" stroke="#4f4a3b" stroke-width="150" stroke-linecap="round" stroke-linejoin="bevel" d="M12174 1273h1010v3841h-1010z"/>
      <circle class="str0" cx="12698" cy="4439" r="1221" fill="#fefefe"/>
      <path d="M12159 4997h116l137-365h541l134 365h116l-457-1203h-130l-457 1203zm291-465l229-621 235 621h-464z" fill="#754219" fill-rule="nonzero" stroke="#754219" stroke-width="100"/>
    </g>
  </g>
</svg>
